<?xml version="1.0" encoding="UTF-8"?>
<svg width="1755px" height="1127px" viewBox="0 0 1755 1127" version="1.1" xmlns="http://www.w3.org/2000/svg" xmlns:xlink="http://www.w3.org/1999/xlink">
    <!-- Generator: Sketch 51.2 (57519) - http://www.bohemiancoding.com/sketch -->
    <title>Group 2</title>
    <desc>Created with Sketch.</desc>
    <defs></defs>
    <g id="Page-1" stroke="none" stroke-width="1" fill="none" fill-rule="evenodd">
        <g id="Artboard" transform="translate(-1191.000000, -130.000000)" fill-rule="nonzero">
            <g id="Group-2" transform="translate(1191.000000, 130.000000)">
                <g id="id-card">
                    <g id="Group-3" transform="translate(1.000000, 0.000000)" fill="#E7ECED">
                        <path d="M1712.05263,0.293103448 L998.947368,0.293103448 C975.876316,0.293103448 957,19.0715517 957,42.0229885 L957,1085.27011 C957,1108.22155 975.876316,1127 998.947368,1127 L1712.05263,1127 C1735.12368,1127 1754,1108.22155 1754,1085.27011 L1754,42.0229885 C1754,19.0715517 1735.12368,0.293103448 1712.05263,0.293103448 Z" id="Shape"></path>
                        <path d="M755.052632,0 L41.9473684,0 C18.8763158,0 0,18.7784483 0,41.7298851 L0,1084.97701 C0,1107.92845 18.8763158,1126.7069 41.9473684,1126.7069 L755.052632,1126.7069 C778.123684,1126.7069 797,1107.92845 797,1084.97701 L797,41.7298851 C797,18.7784483 778.123684,0 755.052632,0 Z" id="Shape"></path>
                    </g>
                    <g id="Group-4">
                        <path d="M1235.05263,0 L521.947368,0 C498.876316,0 480,18.7784483 480,41.7298851 L480,1084.97701 C480,1107.92845 498.876316,1126.7069 521.947368,1126.7069 L1235.05263,1126.7069 C1258.12368,1126.7069 1277,1107.92845 1277,1084.97701 L1277,41.7298851 C1277,18.7784483 1258.12368,0 1235.05263,0 Z" id="Shape" fill="#E7ECED"></path>
                        <path d="M0,748 L0,1084.70219 C0,1107.85047 18.8763158,1126.78997 41.9473684,1126.78997 L755.052632,1126.78997 C778.123684,1126.78997 797,1107.85047 797,1084.70219 L797,748 L0,748 Z" id="Shape" fill="#333333"></path>
                        <path d="M957,748 L957,1084.70219 C957,1107.85047 975.876316,1126.78997 998.947368,1126.78997 L1712.05263,1126.78997 C1735.12368,1126.78997 1754,1107.85047 1754,1084.70219 L1754,748 L957,748 Z" id="Shape" fill="#333333"></path>
                        <path d="M519,748 L519,1084.70219 C519,1107.85047 537.876316,1126.78997 560.947368,1126.78997 L1274.05263,1126.78997 C1297.12368,1126.78997 1316,1107.85047 1316,1084.70219 L1316,748 L519,748 Z" id="Shape" fill="#333333"></path>
                        <g id="Group" transform="translate(614.000000, 835.000000)" fill="#FFFFFF">
                            <path d="M573.850112,127.517241 L949.15212,127.517241 C960.682232,127.517241 970.002231,118.014638 970.002231,106.258621 C970.002231,94.5026034 960.682232,85 949.15212,85 L573.850112,85 C562.32,85 553,94.5026034 553,106.258621 C553,118.014638 562.32,127.517241 573.850112,127.517241 Z" id="Shape"></path>
                            <path d="M229.850112,127.517241 L605.15212,127.517241 C616.682232,127.517241 626.002231,118.014638 626.002231,106.258621 C626.002231,94.5026034 616.682232,85 605.15212,85 L229.850112,85 C218.32,85 209,94.5026034 209,106.258621 C209,118.014638 218.32,127.517241 229.850112,127.517241 Z" id="Shape-Copy"></path>
                            <path d="M20.8501116,127.517241 L396.15212,127.517241 C407.682232,127.517241 417.002231,118.014638 417.002231,106.258621 C417.002231,94.5026034 407.682232,85 396.15212,85 L20.8501116,85 C9.31999987,85 0,94.5026034 0,106.258621 C0,118.014638 9.31999987,127.517241 20.8501116,127.517241 Z" id="Shape-Copy-2"></path>
                            <path d="M740.850112,42.5172414 L949.351227,42.5172414 C960.881339,42.5172414 970.201339,33.0146379 970.201339,21.2586207 C970.201339,9.50260345 960.881339,0 949.351227,0 L740.850112,0 C729.32,0 720,9.50260345 720,21.2586207 C720,33.0146379 729.32,42.5172414 740.850112,42.5172414 Z" id="Shape"></path>
                            <path d="M448.850112,42.5172414 L657.351227,42.5172414 C668.881339,42.5172414 678.201339,33.0146379 678.201339,21.2586207 C678.201339,9.50260345 668.881339,1.70530257e-13 657.351227,1.70530257e-13 L448.850112,1.70530257e-13 C437.32,1.70530257e-13 428,9.50260345 428,21.2586207 C428,33.0146379 437.32,42.5172414 448.850112,42.5172414 Z" id="Shape-Copy-8"></path>
                            <path d="M32.8501116,42.5172414 L241.351227,42.5172414 C252.881339,42.5172414 262.201339,33.0146379 262.201339,21.2586207 C262.201339,9.50260345 252.881339,1.70530257e-13 241.351227,1.70530257e-13 L32.8501116,1.70530257e-13 C21.3199999,1.70530257e-13 12,9.50260345 12,21.2586207 C12,33.0146379 21.3199999,42.5172414 32.8501116,42.5172414 Z" id="Shape-Copy-9"></path>
                            <path d="M125.850112,42.5172414 L334.351227,42.5172414 C345.881339,42.5172414 355.201339,33.0146379 355.201339,21.2586207 C355.201339,9.50260345 345.881339,1.70530257e-13 334.351227,1.70530257e-13 L125.850112,1.70530257e-13 C114.32,1.70530257e-13 105,9.50260345 105,21.2586207 C105,33.0146379 114.32,42.5172414 125.850112,42.5172414 Z" id="Shape-Copy-10"></path>
                            <path d="M594.700223,170 L573.850112,170 C562.32,170 553,179.502603 553,191.258621 C553,203.014638 562.32,212.517241 573.850112,212.517241 L594.700223,212.517241 C606.230335,212.517241 615.550335,203.014638 615.550335,191.258621 C615.550335,179.502603 606.230335,170 594.700223,170 Z" id="Shape"></path>
                            <path d="M490.449665,170 L469.599554,170 C458.069442,170 448.749442,179.502603 448.749442,191.258621 C448.749442,203.014638 458.069442,212.517241 469.599554,212.517241 L490.449665,212.517241 C501.979777,212.517241 511.299777,203.014638 511.299777,191.258621 C511.299777,179.502603 501.979777,170 490.449665,170 Z" id="Shape-Copy-3"></path>
                            <path d="M720.550335,170 L678.850112,170 C667.32,170 658,179.502603 658,191.258621 C658,203.014638 667.32,212.517241 678.850112,212.517241 L720.550335,212.517241 C732.080446,212.517241 741.400446,203.014638 741.400446,191.258621 C741.400446,179.502603 732.080446,170 720.550335,170 Z" id="Shape"></path>
                            <path d="M271.550335,170 L229.850112,170 C218.32,170 209,179.502603 209,191.258621 C209,203.014638 218.32,212.517241 229.850112,212.517241 L271.550335,212.517241 C283.080446,212.517241 292.400446,203.014638 292.400446,191.258621 C292.400446,179.502603 283.080446,170 271.550335,170 Z" id="Shape-Copy-5"></path>
                            <path d="M396.15212,170 L354.451897,170 C342.921785,170 333.601785,179.502603 333.601785,191.258621 C333.601785,203.014638 342.921785,212.517241 354.451897,212.517241 L396.15212,212.517241 C407.682232,212.517241 417.002231,203.014638 417.002231,191.258621 C417.002231,179.502603 407.682232,170 396.15212,170 Z" id="Shape-Copy-4"></path>
                            <path d="M824.700223,170 L803.850112,170 C792.32,170 783,179.502603 783,191.258621 C783,203.014638 792.32,212.517241 803.850112,212.517241 L824.700223,212.517241 C836.230335,212.517241 845.550335,203.014638 845.550335,191.258621 C845.550335,179.502603 836.230335,170 824.700223,170 Z" id="Shape"></path>
                            <path d="M41.7002231,170 L20.8501116,170 C9.31999987,170 0,179.502603 0,191.258621 C0,203.014638 9.31999987,212.517241 20.8501116,212.517241 L41.7002231,212.517241 C53.2303348,212.517241 62.5503347,203.014638 62.5503347,191.258621 C62.5503347,179.502603 53.2303348,170 41.7002231,170 Z" id="Shape-Copy-6"></path>
                            <path d="M41.7002231,170 L20.8501116,170 C9.31999987,170 0,179.502603 0,191.258621 C0,203.014638 9.31999987,212.517241 20.8501116,212.517241 L41.7002231,212.517241 C53.2303348,212.517241 62.5503347,203.014638 62.5503347,191.258621 C62.5503347,179.502603 53.2303348,170 41.7002231,170 Z" id="Shape-Copy-6"></path>
                            <path d="M147.149888,170 L126.299777,170 C114.769665,170 105.449665,179.502603 105.449665,191.258621 C105.449665,203.014638 114.769665,212.517241 126.299777,212.517241 L147.149888,212.517241 C158.68,212.517241 168,203.014638 168,191.258621 C168,179.502603 158.68,170 147.149888,170 Z" id="Shape-Copy-7"></path>
                            <path d="M949.573334,170.068966 L907.873111,170.068966 C896.342999,170.068966 887.023,179.571569 887.023,191.327586 C887.023,203.083603 896.342999,212.586207 907.873111,212.586207 L949.573334,212.586207 C961.103446,212.586207 970.423446,203.083603 970.423446,191.327586 C970.423446,179.571569 961.103446,170.068966 949.573334,170.068966 Z" id="Shape"></path>
                        </g>
                        <g id="Group" transform="translate(101.000000, 835.000000)" fill="#FFFFFF">
                            <path d="M21.2713259,127.551724 L396.573334,127.551724 C408.103446,127.551724 417.423446,118.049121 417.423446,106.293103 C417.423446,94.5370862 408.103446,85.0344828 396.573334,85.0344828 L21.2713259,85.0344828 C9.74121425,85.0344828 0.421214375,94.5370862 0.421214375,106.293103 C0.421214375,118.049121 9.74121425,127.551724 21.2713259,127.551724 Z" id="Shape"></path>
                            <path d="M31.8501116,42.5172414 L240.351227,42.5172414 C251.881339,42.5172414 261.201339,33.0146379 261.201339,21.2586207 C261.201339,9.50260345 251.881339,1.42108547e-13 240.351227,1.42108547e-13 L31.8501116,1.42108547e-13 C20.3199999,1.42108547e-13 11,9.50260345 11,21.2586207 C11,33.0146379 20.3199999,42.5172414 31.8501116,42.5172414 Z" id="Shape"></path>
                            <path d="M42.1214375,170.068966 L21.2713259,170.068966 C9.74121425,170.068966 0.421214375,179.571569 0.421214375,191.327586 C0.421214375,203.083603 9.74121425,212.586207 21.2713259,212.586207 L42.1214375,212.586207 C53.6515492,212.586207 62.9715491,203.083603 62.9715491,191.327586 C62.9715491,179.571569 53.6515492,170.068966 42.1214375,170.068966 Z" id="Shape"></path>
                            <path d="M167.222107,170.068966 L125.521884,170.068966 C113.991772,170.068966 104.671772,179.571569 104.671772,191.327586 C104.671772,203.083603 113.991772,212.586207 125.521884,212.586207 L167.222107,212.586207 C178.752219,212.586207 188.072219,203.083603 188.072219,191.327586 C188.072219,179.571569 178.752219,170.068966 167.222107,170.068966 Z" id="Shape"></path>
                            <path d="M271.472665,170.068966 L250.622553,170.068966 C239.092442,170.068966 229.772442,179.571569 229.772442,191.327586 C229.772442,203.083603 239.092442,212.586207 250.622553,212.586207 L271.472665,212.586207 C283.002777,212.586207 292.322776,203.083603 292.322776,191.327586 C292.322776,179.571569 283.002777,170.068966 271.472665,170.068966 Z" id="Shape"></path>
                            <path d="M396.573334,170.068966 L354.873111,170.068966 C343.342999,170.068966 334.023,179.571569 334.023,191.327586 C334.023,203.083603 343.342999,212.586207 354.873111,212.586207 L396.573334,212.586207 C408.103446,212.586207 417.423446,203.083603 417.423446,191.327586 C417.423446,179.571569 408.103446,170.068966 396.573334,170.068966 Z" id="Shape"></path>
                        </g>
                    </g>
                </g>
            </g>
        </g>
    </g>
</svg>